<?xml version="1.0" encoding="UTF-8"?>
<svg xmlns="http://www.w3.org/2000/svg" xmlns:xlink="http://www.w3.org/1999/xlink" width="64px" height="px" viewBox="0 0 64 64" version="1.1">
<g id="surface1">
<path style=" stroke:none;fill-rule:nonzero;fill:rgb(100%,83.92157%,0%);fill-opacity:1;" d="M 8 56 L 8 8 L 56 8 L 56 56 Z M 8 56 "/>
<path style=" stroke:none;fill-rule:nonzero;fill:rgb(0%,0%,0.392157%);fill-opacity:1;" d="M 39.382812 43.929688 C 40.308594 45.429688 41.308594 46.863281 43.433594 46.863281 C 45.21875 46.863281 46.152344 45.976562 46.152344 44.75 C 46.152344 43.28125 45.183594 42.761719 43.222656 41.90625 L 42.148438 41.449219 C 39.042969 40.128906 36.976562 38.480469 36.976562 34.992188 C 36.976562 31.78125 39.4375 29.335938 43.28125 29.335938 C 46.015625 29.335938 47.984375 30.28125 49.402344 32.765625 L 46.050781 34.90625 C 45.3125 33.589844 44.515625 33.070312 43.28125 33.070312 C 42.019531 33.070312 41.21875 33.867188 41.21875 34.90625 C 41.21875 36.191406 42.019531 36.714844 43.867188 37.507812 L 44.941406 37.96875 C 48.601562 39.527344 50.667969 41.117188 50.667969 44.699219 C 50.667969 48.554688 47.621094 50.667969 43.535156 50.667969 C 39.535156 50.667969 37.265625 48.660156 36 46.175781 Z M 23.9375 44.039062 C 24.609375 45.246094 25.636719 46.175781 27.109375 46.175781 C 28.519531 46.175781 29.332031 45.617188 29.332031 43.453125 L 29.332031 29.332031 L 33.777344 29.332031 L 33.777344 44.132812 C 33.777344 48.625 31.171875 50.667969 27.371094 50.667969 C 23.933594 50.667969 21.453125 48.339844 20.445312 46.175781 Z M 23.9375 44.039062 "/>
</g>
</svg>
